<?xml version="1.0" encoding="utf-8"?>
<!-- Generator: Adobe Illustrator 27.3.1, SVG Export Plug-In . SVG Version: 6.00 Build 0)  -->
<svg version="1.1" id="Layer_1" xmlns="http://www.w3.org/2000/svg" xmlns:xlink="http://www.w3.org/1999/xlink" x="0px" y="0px"
	 viewBox="0 0 40 40" style="enable-background:new 0 0 40 40;" xml:space="preserve">
<path d="M28.2,13.6c-0.3,0-0.6,0.1-0.9,0.4L16.4,24.9L11.6,20c-0.2-0.2-0.5-0.4-0.9-0.4c-0.3,0-0.6,0.1-0.8,0.3
	c-0.2,0.2-0.4,0.5-0.4,0.9c0,0.3,0.1,0.6,0.3,0.9l5.9,6.1C16,28,16.1,28,16.3,28c0.2,0,0.4-0.1,0.5-0.2L29,15.7
	c0.5-0.5,0.5-1.2,0-1.7C28.8,13.7,28.5,13.6,28.2,13.6z"/>
<path d="M20,40C9,40,0,31,0,20C0,9,9,0,20,0c11,0,20,9,20,20C40,31,31,40,20,40z M20,1.9C10,1.9,1.9,10,1.9,20S10,38.1,20,38.1
	S38.1,30,38.1,20S30,1.9,20,1.9z"/>
</svg>
