<?xml version="1.0" encoding="UTF-8" standalone="no"?><!DOCTYPE svg PUBLIC "-//W3C//DTD SVG 1.1//EN" "http://www.w3.org/Graphics/SVG/1.1/DTD/svg11.dtd"><svg width="100%" height="100%" viewBox="0 0 396 288" version="1.1" xmlns="http://www.w3.org/2000/svg" xmlns:xlink="http://www.w3.org/1999/xlink" xml:space="preserve" xmlns:serif="http://www.serif.com/" style="fill-rule:evenodd;clip-rule:evenodd;stroke-linejoin:round;stroke-miterlimit:2;"><rect id="KG_website_withtext" x="0" y="0" width="396" height="288" style="fill:none;"/><path d="M15.632,270.238l-0,-42.18l5.912,-0l-0,11.284l11.284,-11.284l8.328,-0l-16.986,17.008l25.171,25.172l-8.356,-0l-19.441,-19.442l-0,19.442l-5.912,-0Z" style="fill:#2b296f;"/><rect x="54.884" y="226.523" width="5.798" height="43.715" style="fill:#2b296f;fill-rule:nonzero;"/><path d="M68.584,239.711l5.77,0l-0,30.527l-5.77,-0l-0,-30.527Zm2.871,-3.354c-0.986,0 -1.838,-0.35 -2.558,-1.051c-0.702,-0.72 -1.052,-1.573 -1.052,-2.558c-0,-1.005 0.35,-1.867 1.052,-2.587c0.72,-0.701 1.572,-1.051 2.558,-1.051c1.004,-0 1.866,0.35 2.586,1.051c0.701,0.72 1.052,1.582 1.052,2.587c-0,0.985 -0.351,1.838 -1.052,2.558c-0.72,0.701 -1.582,1.051 -2.586,1.051Z" style="fill:#2b296f;fill-rule:nonzero;"/><path d="M105.079,250.825c-0.682,-1.44 -1.753,-2.719 -3.212,-3.837c-1.724,-1.251 -3.647,-1.876 -5.77,-1.876c-2.141,-0 -4.064,0.625 -5.769,1.876c-1.27,0.852 -2.35,2.131 -3.241,3.837l17.992,-0Zm-8.982,-11.483c4.302,-0 7.987,1.525 11.057,4.576c3.051,3.07 4.576,6.755 4.576,11.057l-0.057,1.62l-25.353,-0c0.379,2.236 1.412,4.121 3.098,5.656c1.876,1.743 4.102,2.615 6.679,2.615c1.857,-0 3.582,-0.493 5.173,-1.478c1.535,-0.948 2.824,-2.416 3.866,-4.406l5.287,2.302c-1.535,3.051 -3.534,5.363 -5.998,6.936c-2.539,1.61 -5.315,2.416 -8.328,2.416c-4.301,-0 -7.986,-1.526 -11.056,-4.576c-3.07,-3.07 -4.605,-6.765 -4.605,-11.085c0,-4.302 1.535,-7.987 4.605,-11.057c3.07,-3.051 6.755,-4.576 11.056,-4.576Z" style="fill:#2b296f;fill-rule:nonzero;"/><path d="M143.195,270.238l-5.77,-0l-0,-18.219c-0,-1.914 -0.673,-3.534 -2.018,-4.861c-1.346,-1.364 -2.975,-2.046 -4.889,-2.046c-1.914,-0 -3.544,0.682 -4.889,2.046c-1.345,1.327 -2.018,2.947 -2.018,4.861l0,18.219l-5.77,-0l0,-30.527l5.77,0l0,1.649c2.046,-1.364 4.349,-2.037 6.907,-2.018c3.486,-0 6.48,1.232 8.982,3.695c2.463,2.501 3.695,5.495 3.695,8.982l-0,18.219Z" style="fill:#2b296f;fill-rule:nonzero;"/><path d="M150.698,234.481l5.77,0l0,5.173l5.116,0l0,5.77l-5.116,0l0,14.61c0,1.232 0.426,2.274 1.279,3.126c0.853,0.872 2.132,1.308 3.837,1.308l0,5.77c-3.278,-0 -5.921,-0.995 -7.93,-2.985c-1.97,-2.008 -2.956,-4.415 -2.956,-7.219l0,-25.553Z" style="fill:#2b296f;fill-rule:nonzero;"/><path d="M178.212,270.636c-2.539,-0.019 -4.842,-0.626 -6.907,-1.819c-2.501,-1.478 -4.226,-3.838 -5.173,-7.078l5.543,-1.591c0.53,1.8 1.43,3.06 2.7,3.78c1.118,0.606 2.406,0.919 3.865,0.938c0.171,-0 0.365,-0.01 0.583,-0.029c0.218,-0.019 0.45,-0.047 0.696,-0.085c0.588,-0.095 1.118,-0.256 1.592,-0.483c1.251,-0.587 1.942,-1.601 2.075,-3.041c0.038,-0.645 -0.161,-1.223 -0.597,-1.734c-0.815,-0.967 -2.217,-1.507 -4.207,-1.62c-4.528,-0.303 -7.797,-1.459 -9.806,-3.468c-0.814,-0.815 -1.402,-1.753 -1.762,-2.814c-0.265,-0.815 -0.398,-1.677 -0.398,-2.586c0,-2.994 1.175,-5.41 3.525,-7.248c2.065,-1.611 4.576,-2.416 7.532,-2.416c3.486,-0 6.395,1.241 8.726,3.723c1.118,1.137 2.075,2.672 2.87,4.605l-5.372,2.018l-0.682,-1.308c-0.284,-0.492 -0.616,-0.947 -0.994,-1.364c-1.251,-1.269 -2.786,-1.904 -4.605,-1.904c-0.36,0.019 -0.663,0.047 -0.91,0.085c-0.625,0.076 -1.222,0.227 -1.79,0.455c-1.687,0.663 -2.53,1.781 -2.53,3.354c0,0.928 0.654,1.667 1.961,2.217c1.137,0.454 2.682,0.748 4.633,0.881c1.99,0.132 3.733,0.587 5.23,1.364c1.175,0.588 2.16,1.345 2.956,2.274c1.497,1.724 2.151,3.704 1.961,5.94c-0.227,2.9 -1.459,5.164 -3.695,6.794c-1.951,1.44 -4.282,2.16 -6.992,2.16l-0.028,-0Z" style="fill:#2b296f;fill-rule:nonzero;"/><path d="M237.872,248.409c-0,3.448 -0.578,6.528 -1.734,9.237c-1.099,2.615 -2.653,4.936 -4.661,6.964c-2.047,2.009 -4.368,3.562 -6.964,4.661c-2.71,1.156 -5.552,1.734 -8.527,1.734c-2.956,0 -5.789,-0.578 -8.498,-1.734c-2.615,-1.099 -4.937,-2.652 -6.964,-4.661c-2.009,-2.028 -3.562,-4.349 -4.661,-6.964c-1.156,-2.709 -1.734,-5.542 -1.734,-8.498c-0,-2.975 0.578,-5.817 1.734,-8.527c1.099,-2.596 2.652,-4.917 4.661,-6.964c2.027,-2.008 4.349,-3.562 6.964,-4.661c2.709,-1.156 5.542,-1.734 8.498,-1.734c4.699,0 8.963,1.374 12.791,4.121c3.714,2.672 6.433,6.481 8.157,11.426l-6.48,0c-1.422,-2.993 -3.402,-5.305 -5.941,-6.935c-2.577,-1.686 -5.419,-2.529 -8.527,-2.529c-4.358,-0 -8.072,1.544 -11.142,4.633c-3.088,3.088 -4.633,6.812 -4.633,11.17c0,4.358 1.545,8.072 4.633,11.142c3.07,3.088 6.784,4.633 11.142,4.633c3.563,-0 6.746,-1.071 9.55,-3.212c2.748,-2.103 4.529,-4.51 5.344,-7.22l-15.548,0l0,-6.082l22.54,-0Z" style="fill:#00532b;fill-rule:nonzero;"/><path d="M259.047,239.342l0,5.77l-1.25,-0c-1.914,-0 -3.534,0.682 -4.861,2.046c-1.364,1.346 -2.046,2.975 -2.046,4.889l-0,18.191l-5.77,-0l-0,-30.527l5.77,0l-0,1.592c1.572,-1.307 3.875,-1.961 6.907,-1.961l1.25,-0Z" style="fill:#00532b;fill-rule:nonzero;"/><path d="M277.863,245.112c-2.728,-0 -5.05,0.966 -6.963,2.899c-1.952,1.914 -2.928,4.235 -2.928,6.964c0,2.728 0.976,5.059 2.928,6.992c1.913,1.932 4.235,2.899 6.963,2.899c2.729,-0 5.05,-0.967 6.964,-2.899c1.933,-1.933 2.899,-4.264 2.899,-6.992c0,-2.729 -0.966,-5.05 -2.899,-6.964c-1.914,-1.933 -4.235,-2.899 -6.964,-2.899Zm0,25.524c-4.32,-0 -8.015,-1.526 -11.085,-4.576c-3.05,-3.07 -4.576,-6.765 -4.576,-11.085c0,-4.302 1.526,-7.987 4.576,-11.057c3.07,-3.051 6.765,-4.576 11.085,-4.576c4.302,-0 7.987,1.525 11.057,4.576c3.051,3.07 4.576,6.755 4.576,11.057c-0,4.32 -1.525,8.015 -4.576,11.085c-3.07,3.05 -6.755,4.576 -11.057,4.576Z" style="fill:#00532b;fill-rule:nonzero;"/><path d="M320.242,257.675l7.276,-17.964l5.77,0l-13.046,32.289l-6.196,-15.377l-6.225,15.377l-13.046,-32.289l5.798,0l7.248,17.964l3.326,-8.215l-3.951,-9.749l5.798,0l1.052,2.587l1.023,-2.587l5.798,0l-3.922,9.749l3.297,8.215Z" style="fill:#00532b;fill-rule:nonzero;"/><path d="M338.717,234.481l5.77,0l0,5.173l5.116,0l0,5.77l-5.116,0l0,14.61c0,1.232 0.426,2.274 1.279,3.126c0.853,0.872 2.132,1.308 3.837,1.308l0,5.77c-3.278,-0 -5.921,-0.995 -7.93,-2.985c-1.97,-2.008 -2.956,-4.415 -2.956,-7.219l0,-25.553Z" style="fill:#00532b;fill-rule:nonzero;"/><path d="M380.311,111.562c-0,52.743 -42.82,95.563 -95.563,95.563c-52.742,-0 -95.562,-42.82 -95.562,-95.563c0,-52.742 42.82,-95.562 95.562,-95.562c52.743,-0 95.563,42.82 95.563,95.562c-0,-47.868 -38.805,-86.672 -86.673,-86.672c-47.868,-0 -86.673,38.804 -86.673,86.672c0,47.836 38.837,86.673 86.673,86.673c47.836,0 86.673,-38.837 86.673,-86.673Zm-0,0c-0,42.93 -34.854,77.784 -77.783,77.784c-42.93,-0 -77.784,-34.854 -77.784,-77.784l17.779,0c0,38.024 30.871,68.894 68.894,68.894c38.024,0 68.894,-30.87 68.894,-68.894Zm-0,0c-0,34.344 -27.883,62.227 -62.227,62.227c-34.344,0 -62.226,-27.883 -62.226,-62.227l17.779,0c-0,29.438 23.899,53.338 53.337,53.338c29.437,-0 53.337,-23.9 53.337,-53.338Z" style="fill:#2b296f;"/><path d="M380.414,270.238l-5.77,-0l-0,-18.219c-0,-1.914 -0.673,-3.534 -2.018,-4.861c-1.345,-1.364 -2.975,-2.046 -4.889,-2.046c-1.914,-0 -3.543,0.682 -4.889,2.046c-1.345,1.327 -2.018,2.947 -2.018,4.861l0,18.219l-5.77,-0l0,-43.715l5.77,0l0,14.837c2.047,-1.364 4.349,-2.037 6.907,-2.018c3.487,-0 6.481,1.232 8.982,3.695c2.463,2.501 3.695,5.495 3.695,8.982l-0,18.219Z" style="fill:#00532b;fill-rule:nonzero;"/><g><path d="M90.593,22.667l27.277,0l-49.047,49.047l-13.638,-13.639l35.408,-35.408Z" style="fill:#2b296f;"/><path d="M126.251,22.667l27.277,0l-66.876,66.876l-13.638,-13.639l53.237,-53.237Z" style="fill:#2b296f;"/><path d="M19.777,22.667l26.776,0l-13.388,13.389l-13.388,-13.389Z" style="fill:#2b296f;"/><path d="M54.935,22.667l27.277,0l-31.218,31.218l-13.638,-13.639l17.579,-17.579Z" style="fill:#2b296f;"/></g><g><path d="M15.586,161.109l0,-27.277l66.626,66.626l-27.277,-0l-39.349,-39.349Z" style="fill:#00532b;"/><path d="M15.586,200.458l0,-30.968l30.967,30.968l-30.967,-0Z" style="fill:#00532b;"/><path d="M15.586,125.451l0,-27.277l102.284,102.284l-27.277,-0l-75.007,-75.007Z" style="fill:#00532b;"/><path d="M15.586,89.793l0,-27.277l137.942,137.942l-27.277,-0l-110.665,-110.665Z" style="fill:#00532b;"/><path d="M15.586,54.135l0,-27.277l173.6,173.6l-27.277,-0l-146.323,-146.323Z" style="fill:#00532b;"/></g><g><path d="M335.853,67.135c24.526,0 44.438,19.912 44.438,44.438c-0,24.525 -19.912,44.437 -44.438,44.437c-24.526,0 -44.437,-19.912 -44.437,-44.437c-0,-24.526 19.911,-44.438 44.437,-44.438Zm0,11.63c-18.107,-0 -32.808,14.701 -32.808,32.808c0,18.107 14.701,32.807 32.808,32.807c18.107,0 32.808,-14.7 32.808,-32.807c-0,-18.107 -14.701,-32.808 -32.808,-32.808Z" style="fill:#00532b;"/><circle cx="335.853" cy="111.573" r="13.22" style="fill:#00532b;"/></g></svg>